<?xml version="1.0" standalone="no"?>
<!DOCTYPE svg PUBLIC "-//W3C//DTD SVG 20010904//EN"
 "http://www.w3.org/TR/2001/REC-SVG-20010904/DTD/svg10.dtd">
<svg version="1.0" xmlns="http://www.w3.org/2000/svg"
 width="775.000000pt" height="516.000000pt" viewBox="0 0 775.000000 516.000000"
 preserveAspectRatio="xMidYMid meet">

<g transform="translate(0.000000,516.000000) scale(0.100000,-0.100000)"
fill="#000000" stroke="none">
<path d="M4155 3158 c-3 -7 -65 -182 -140 -389 -74 -207 -137 -383 -141 -392
-5 -14 1 -17 38 -17 l45 0 128 358 c70 196 136 378 146 405 l19 47 -45 0 c-28
0 -47 -5 -50 -12z"/>
<path d="M3585 2926 c-156 -101 -191 -128 -193 -149 -3 -22 16 -39 165 -144
92 -66 180 -128 196 -137 l27 -18 0 49 0 50 -135 94 c-74 52 -134 97 -135 101
0 3 61 45 135 93 l135 87 0 49 c0 27 -1 49 -2 49 -2 -1 -88 -56 -193 -124z"/>
<path d="M4322 3003 l3 -48 138 -91 139 -91 -141 -99 -140 -99 -1 -47 c0 -27
3 -48 6 -48 3 0 93 61 200 137 150 105 194 141 194 158 0 17 -39 46 -187 142
-104 66 -194 123 -201 127 -10 6 -12 -3 -10 -41z"/>
<path d="M1071 2966 c-8 -9 -11 -75 -9 -216 3 -181 5 -204 21 -214 12 -8 22
-8 35 0 14 9 17 29 20 123 l3 111 74 0 75 0 0 -104 c0 -106 10 -136 44 -136
33 0 36 27 34 230 -3 181 -5 204 -20 214 -34 21 -53 -4 -56 -73 l-3 -61 -74 0
-75 0 0 58 c0 32 -5 63 -12 70 -16 16 -43 15 -57 -2z"/>
<path d="M1585 2949 c-87 -104 -171 -380 -125 -409 39 -25 65 1 74 74 9 84 21
106 53 106 37 -1 103 -32 131 -63 13 -14 29 -44 36 -68 23 -76 78 -80 84 -6 4
41 -43 187 -87 275 -63 125 -113 153 -166 91z m119 -176 c7 -21 6 -21 -31 -8
-21 8 -50 16 -66 20 l-27 5 21 43 c37 74 40 74 70 15 14 -29 29 -63 33 -75z"/>
<path d="M1958 2968 c-9 -7 -21 -36 -26 -63 -16 -76 -34 -304 -27 -336 10 -46
67 -50 79 -6 3 12 6 67 6 122 0 55 3 117 6 138 l7 38 19 -43 c21 -47 65 -98
84 -98 17 0 67 60 84 100 12 29 15 31 21 14 4 -10 8 -71 8 -134 1 -63 4 -125
7 -138 7 -26 50 -40 67 -23 26 27 -2 389 -34 427 -13 15 -47 18 -67 6 -7 -5
-28 -41 -47 -80 -19 -40 -37 -72 -40 -72 -4 0 -22 33 -40 74 -40 85 -68 104
-107 74z"/>
<path d="M2412 2968 c-9 -9 -12 -70 -12 -215 0 -190 1 -203 19 -213 28 -14
234 -13 249 2 18 18 14 46 -7 58 -11 5 -56 10 -100 10 l-81 0 0 79 0 79 90 4
c67 2 93 7 100 18 13 21 12 26 -6 44 -12 12 -36 16 -100 16 -83 0 -84 0 -84
25 0 25 1 25 81 25 44 0 89 5 100 10 23 13 25 55 3 64 -30 12 -239 7 -252 -6z"/>
<path d="M2788 2970 c-16 -10 -18 -31 -18 -215 0 -192 1 -205 19 -215 26 -14
180 -13 222 1 183 61 147 349 -51 414 -62 20 -151 28 -172 15z m148 -95 c63
-32 96 -80 102 -149 4 -45 1 -57 -20 -80 -21 -25 -33 -29 -96 -34 l-72 -5 0
147 c0 167 -2 165 86 121z"/>
<path d="M5104 2948 c-63 -75 -154 -325 -140 -383 13 -51 72 -42 81 13 22 129
27 142 57 142 72 0 151 -58 169 -125 13 -49 26 -65 50 -65 21 0 39 28 39 63 0
70 -100 307 -153 365 -30 33 -70 29 -103 -10z m95 -116 c17 -38 31 -71 31 -75
0 -3 -16 1 -35 9 -19 7 -42 14 -52 14 -42 1 -45 15 -16 68 15 29 30 52 34 52
3 0 20 -31 38 -68z"/>
<path d="M5455 2967 c-19 -14 -20 -27 -20 -212 0 -241 -7 -229 140 -223 116 5
153 20 190 77 74 110 22 267 -108 330 -76 37 -172 50 -202 28z m140 -86 c79
-35 127 -125 109 -199 -12 -48 -57 -72 -134 -72 l-55 0 0 145 c0 164 -1 163
80 126z"/>
<path d="M5890 2961 c-6 -12 -10 -98 -10 -210 0 -233 -8 -221 152 -221 84 0
110 3 122 16 9 8 16 19 16 24 0 5 -7 16 -16 24 -12 12 -37 16 -105 16 l-90 0
3 83 3 82 95 5 c81 4 95 8 98 23 7 37 -16 47 -110 47 l-89 0 3 28 3 27 94 2
c64 1 97 6 102 15 12 18 11 24 -7 42 -12 13 -40 16 -134 16 -108 0 -120 -2
-130 -19z"/>
<path d="M6273 2972 c-18 -11 -22 -407 -5 -424 17 -17 183 -24 211 -9 25 14
28 56 5 65 -9 3 -45 6 -80 6 l-64 0 0 159 c0 88 -4 171 -10 185 -9 26 -33 33
-57 18z"/>
<path d="M6571 2966 c-8 -9 -11 -75 -9 -216 3 -181 5 -204 21 -214 12 -8 22
-8 35 0 15 10 17 33 20 214 3 209 -1 230 -38 230 -10 0 -23 -6 -29 -14z"/>
<path d="M2500 2034 c0 -48 3 -65 13 -62 6 3 13 19 15 36 2 24 8 32 22 32 10
0 22 5 25 10 4 6 -5 10 -19 10 -14 0 -26 5 -26 10 0 6 11 10 25 10 14 0 25 5
25 10 0 6 -18 10 -40 10 l-40 0 0 -66z"/>
<path d="M2627 2058 c-7 -51 12 -88 46 -88 35 0 47 19 47 77 0 40 -4 53 -15
53 -11 0 -14 -12 -12 -52 2 -47 0 -53 -18 -53 -17 0 -20 8 -23 53 -4 63 -17
68 -25 10z"/>
<path d="M2780 2035 l0 -65 35 0 c39 0 48 17 13 22 -20 3 -23 10 -26 56 -4 75
-22 65 -22 -13z"/>
<path d="M2900 2035 l0 -65 35 0 c19 0 35 5 35 10 0 6 -11 10 -25 10 -24 0
-25 3 -25 55 0 30 -4 55 -10 55 -6 0 -10 -28 -10 -65z"/>
<path d="M3107 2088 c-8 -23 13 -48 39 -48 28 0 44 -28 23 -41 -8 -5 -27 -9
-42 -9 -16 0 -26 -4 -22 -10 3 -5 21 -10 39 -10 67 0 88 74 25 87 -40 8 -47
23 -10 23 16 0 33 5 36 10 4 6 -11 10 -39 10 -26 0 -46 -5 -49 -12z"/>
<path d="M3250 2090 c0 -5 7 -10 14 -10 11 0 16 -15 18 -52 4 -67 22 -65 26 2
2 36 7 50 18 50 7 0 14 5 14 10 0 6 -20 10 -45 10 -25 0 -45 -4 -45 -10z"/>
<path d="M3404 2064 c-22 -52 -29 -94 -15 -94 10 0 15 8 26 47 6 19 46 2 56
-23 10 -27 29 -32 29 -8 0 8 -10 38 -21 65 -27 61 -53 66 -75 13z m50 -10 c5
-12 2 -15 -10 -10 -8 3 -18 6 -20 6 -3 0 -2 5 1 10 9 15 22 12 29 -6z"/>
<path d="M3555 2076 c-19 -28 -8 -66 27 -90 25 -18 68 -22 68 -6 0 6 -6 10
-14 10 -8 0 -27 10 -42 23 -38 33 -27 67 22 67 19 0 34 5 34 10 0 6 -18 10
-40 10 -31 0 -43 -5 -55 -24z"/>
<path d="M3700 2034 c0 -48 3 -65 13 -62 6 3 13 19 15 37 4 40 22 37 41 -7 8
-18 18 -32 23 -32 14 0 9 43 -8 61 -13 14 -13 20 -3 38 18 28 2 40 -17 13 -19
-27 -30 -28 -37 -2 -3 11 -10 20 -16 20 -7 0 -11 -25 -11 -66z"/>
<path d="M3940 2035 l0 -65 38 0 c69 0 95 58 47 105 -15 16 -36 25 -55 25
l-30 0 0 -65z m64 29 c21 -20 21 -60 0 -68 -29 -11 -34 -6 -34 39 0 48 9 55
34 29z"/>
<path d="M4102 2038 l3 -63 43 -3 c25 -2 42 1 42 7 0 6 -13 11 -30 11 -25 0
-30 4 -30 25 0 20 5 25 24 25 14 0 28 5 31 10 4 6 -7 10 -24 10 -17 0 -31 5
-31 10 0 6 11 10 24 10 14 0 28 5 31 10 4 6 -12 10 -40 10 l-46 0 3 -62z"/>
<path d="M4237 2094 c-7 -8 18 -91 33 -109 7 -8 17 -15 22 -15 12 0 48 79 48
108 0 38 -23 20 -33 -24 -12 -59 -23 -61 -38 -5 -12 49 -19 58 -32 45z"/>
<path d="M4392 2038 l3 -63 43 -3 c25 -2 42 1 42 7 0 6 -13 11 -30 11 -25 0
-30 4 -30 25 0 20 5 25 24 25 14 0 28 5 31 10 4 6 -7 10 -24 10 -17 0 -31 5
-31 10 0 6 11 10 24 10 14 0 28 5 31 10 4 6 -12 10 -40 10 l-46 0 3 -62z"/>
<path d="M4532 2038 c3 -61 4 -63 32 -66 16 -2 33 1 39 7 8 8 3 11 -16 11 -26
0 -27 2 -27 55 0 43 -3 55 -15 55 -13 0 -15 -11 -13 -62z"/>
<path d="M4662 2087 c-23 -27 -24 -62 -2 -90 54 -68 144 10 94 81 -17 25 -74
31 -92 9z m72 -23 c16 -42 -6 -80 -38 -68 -22 8 -31 50 -16 69 16 20 46 19 54
-1z"/>
<path d="M4820 2034 c0 -48 3 -65 13 -62 6 3 13 17 15 31 2 15 10 27 18 27 21
0 54 38 48 55 -4 10 -20 15 -50 15 l-44 0 0 -66z m60 31 c-7 -8 -16 -15 -21
-15 -5 0 -9 7 -9 15 0 9 9 15 21 15 18 0 19 -2 9 -15z"/>
<path d="M4962 2038 l3 -63 34 -3 c18 -2 38 1 44 7 8 8 2 11 -21 11 -27 0 -32
4 -32 25 0 20 5 25 24 25 14 0 28 5 31 10 4 6 -7 10 -24 10 -17 0 -31 5 -31
10 0 6 11 10 24 10 14 0 28 5 31 10 4 6 -12 10 -40 10 l-46 0 3 -62z"/>
<path d="M5100 2035 c0 -36 4 -65 9 -65 11 0 21 25 21 52 0 28 22 18 40 -20
20 -41 34 -41 26 1 -4 17 -6 47 -6 65 1 31 0 32 -45 32 l-45 0 0 -65z m70 35
c0 -5 -9 -10 -20 -10 -11 0 -20 5 -20 10 0 6 9 10 20 10 11 0 20 -4 20 -10z"/>
<path d="M3010 2020 c0 -5 9 -10 19 -10 11 0 23 5 26 10 4 6 -5 10 -19 10 -14
0 -26 -4 -26 -10z"/>
</g>
</svg>
